<svg xmlns="http://www.w3.org/2000/svg" width="19.531" height="20" viewBox="0 0 19.531 20">
  <defs>
    <style>
      .cls-1 {
        fill: #252525;
        fill-rule: evenodd;
      }
    </style>
  </defs>
  <path class="cls-1" d="M127.987,195.376a7.668,7.668,0,0,0-2.537-3.2,10.679,10.679,0,0,0-5.6-2.113,11.716,11.716,0,0,0-3.248.147,10.627,10.627,0,0,0-4.032,1.614,8.241,8.241,0,0,0-2.777,3.015,6.547,6.547,0,0,0-.708,4.111,6.929,6.929,0,0,0,1.517,3.364,9.01,9.01,0,0,0,2.895,2.335,0.1,0.1,0,0,1,.06.148q-0.352,1.263-.7,2.528c-0.092.335-.19,0.666-0.261,1.007a0.213,0.213,0,0,0,.26.281,0.467,0.467,0,0,0,.169-0.059c0.147-.087.3-0.17,0.44-0.264,1.18-.772,2.322-1.6,3.465-2.431a0.288,0.288,0,0,1,.23-0.058,11.459,11.459,0,0,0,1.736.109,11.766,11.766,0,0,0,1.9-.172,10.741,10.741,0,0,0,3.735-1.363,8.37,8.37,0,0,0,2.992-2.909A6.521,6.521,0,0,0,127.987,195.376Zm-13.958,1.348c-0.082,0-.1.025-0.1,0.1q0,1.648,0,3.3a0.565,0.565,0,1,1-1.128.032c0-.555,0-1.111,0-1.665s0-1.1,0-1.653c0-.087-0.014-0.119-0.107-0.116-0.25.007-.5,0-0.751,0a0.569,0.569,0,1,1-.005-1.137q1.425,0,2.851,0a0.561,0.561,0,0,1,.566.506,0.571,0.571,0,0,1-.412.615,0.635,0.635,0,0,1-.168.016C114.529,196.726,114.279,196.729,114.029,196.724Zm4.836,3.6a0.367,0.367,0,0,1-.247.342,0.818,0.818,0,0,1-.352.06,0.459,0.459,0,0,1-.466-0.345c-0.059-.2-0.143-0.385-0.21-0.578a0.1,0.1,0,0,0-.119-0.088c-0.257.005-.514,0-0.771,0s-0.52,0-.781,0a0.1,0.1,0,0,0-.107.076c-0.066.191-.139,0.38-0.21,0.568a0.5,0.5,0,0,1-.609.364,0.485,0.485,0,0,1-.446-0.685,5.15,5.15,0,0,1,.252-0.749q0.57-1.557,1.144-3.114a0.836,0.836,0,0,1,.631-0.573,0.8,0.8,0,0,1,.868.544c0.212,0.567.419,1.137,0.628,1.705q0.354,0.958.706,1.917A1.274,1.274,0,0,1,118.865,200.327Zm2.689,0.321q-0.951.011-1.9,0a0.521,0.521,0,0,1-.49-0.537c0-.658,0-1.316,0-1.974s0-1.31,0-1.964a0.573,0.573,0,0,1,1.13-.145,0.866,0.866,0,0,1,.016.215q0,1.619,0,3.236c0,0.092.023,0.115,0.111,0.113q0.55-.008,1.1,0A0.529,0.529,0,0,1,121.554,200.648Zm4.179-.08a0.548,0.548,0,0,1-.829-0.09c-0.392-.531-0.78-1.066-1.17-1.6a0.225,0.225,0,0,0-.03-0.042,0.269,0.269,0,0,0-.13-0.139,0.432,0.432,0,0,0-.184.269c0,0.4,0,.8,0,1.2a0.564,0.564,0,0,1-.464.554,0.558,0.558,0,0,1-.607-0.333,0.608,0.608,0,0,1-.051-0.25q0-1.98,0-3.961a0.562,0.562,0,1,1,1.122,0c0,0.379,0,.758,0,1.137v0.079l0.034,0.025a0.635,0.635,0,0,1,.064-0.093l1.443-1.492a0.463,0.463,0,0,1,.619-0.081,0.574,0.574,0,0,1,.259.628,0.523,0.523,0,0,1-.14.222c-0.395.406-.787,0.815-1.184,1.219a0.094,0.094,0,0,0-.008.149q0.66,0.9,1.314,1.8A0.6,0.6,0,0,1,125.733,200.568Zm-9.141-3.215c-0.142.417-.284,0.836-0.429,1.253-0.024.069-.013,0.088,0.058,0.084,0.11,0,.22,0,0.33,0h0.709c-0.186-.549-0.369-1.086-0.561-1.649C116.656,197.164,116.625,197.258,116.592,197.353Z" transform="translate(-109 -189.313)"/>
</svg>
