<svg id="Layer_1" data-name="Layer 1" xmlns="http://www.w3.org/2000/svg" viewBox="0 0 225.1446 64.0195"><defs><style>.cls-1{fill:#f15a21;}.cls-2{fill:#c9242b;}.cls-3{fill:#221e1f;}</style></defs><path class="cls-1" d="M404.16,328.9741l11.6367,3.27,3.2666-11.6123a3.954,3.954,0,0,0-2.6953-4.8432l-11.64-3.2705-3.2666,11.6123a3.9533,3.9533,0,0,0,2.6983,4.8432" transform="translate(-213.998 -312.5186)"/><path class="cls-1" d="M435.8711,333.8306l3.2715-11.6377-11.6172-3.2661a3.9418,3.9418,0,0,0-4.8369,2.6982l-3.2764,11.6377,11.6172,3.2661a3.9577,3.9577,0,0,0,4.8418-2.6982" transform="translate(-213.998 -312.5186)"/><path class="cls-1" d="M430.0605,340.0537l-11.6367-3.2724-3.2646,11.61a3.9594,3.9594,0,0,0,2.6953,4.8486l11.6416,3.27,3.2627-11.6119a3.9526,3.9526,0,0,0-2.6983-4.8442" transform="translate(-213.998 -312.5186)"/><path class="cls-2" d="M398.3535,335.1953,395.08,346.834l11.6162,3.2646a3.95,3.95,0,0,0,4.8408-2.6943l3.2686-11.6377-11.6075-3.2642a3.9519,3.9519,0,0,0-4.8447,2.6929" transform="translate(-213.998 -312.5186)"/><polygon class="cls-3" points="27.549 61.78 55 61.78 56.269 57.489 28.753 57.489 27.549 61.78"/><polygon class="cls-3" points="87.605 61.78 115.062 61.78 116.322 57.489 88.805 57.489 87.605 61.78"/><polygon class="cls-2" points="146.736 61.78 174.19 61.78 175.452 57.489 147.938 57.489 146.736 61.78"/><polygon class="cls-2" points="119.918 53.24 125.323 53.24 122.314 63.836 127.64 63.836 130.644 53.24 136.613 53.24 133.608 63.836 138.93 63.836 141.935 53.24 147.367 53.24 148.643 48.945 121.129 48.945 119.918 53.24"/><path class="cls-3" d="M289.8271,347.4541h6.13l-3.3066,11.67h-6.1328Zm10.3682,15.9648,1.2666-4.2949h-3.4946l3.3042-11.67h3.5215l1.2656-4.2944H282.4219l-1.2158,4.2944h3.3l-3.309,11.67h-3.375l-1.209,4.2949h8.623l-1.8486,6.5889H272.9072l-1.209,4.291H299.15l1.2676-4.291H289.1919l1.8486-6.5889Z" transform="translate(-213.998 -312.5186)"/><polygon class="cls-3" points="28.967 30.641 24.006 48.059 28.839 48.059 33.796 30.641 28.967 30.641"/><polygon class="cls-3" points="22.856 49.81 22.834 49.892 6.287 49.892 5.081 54.186 21.608 54.186 18.804 64.019 24.427 64.019 27.911 51.803 28.479 49.892 28.458 49.892 28.479 49.81 22.856 49.81"/><polygon class="cls-2" points="132.874 30.715 127.547 30.715 124.524 41.368 124.516 41.368 123.303 45.654 147.855 45.654 149.121 41.368 129.85 41.368 132.874 30.715"/><polygon class="cls-3" points="112.859 30.019 107.543 30.019 106.969 32.096 97.762 32.096 96.548 36.389 103.826 36.389 90.809 49.81 94.315 52.471 107.736 38.807 113.182 52.471 118.379 49.81 113.075 36.389 120.135 36.389 121.4 32.096 112.29 32.096 112.859 30.019"/><polygon class="cls-3" points="30.995 49.81 34.506 52.471 47.928 38.807 53.372 52.471 58.574 49.81 50.588 29.614 30.995 49.81"/><polygon class="cls-2" points="167.148 38.807 172.593 52.471 177.8 49.81 169.81 29.614 150.225 49.81 153.729 52.471 167.148 38.807"/><path class="cls-3" d="M219.6587,353.7207c-1.1162-1.5088-.377-3.9443,1.6323-5.4394,2.0274-1.4834,4.5664-1.4795,5.6851.0332,1.1093,1.5068.3818,3.9414-1.6392,5.4326-2.0185,1.4912-4.56,1.4785-5.6782-.0264m8.16,3.3887a12.77,12.77,0,0,0,3.6773-4.1914h1.35l-2.18,7.6591h4.8315l4.9634-17.4174h-4.8379l-1.5551,5.4633h-1.4317a6.1056,6.1056,0,0,0-1.1626-3.6333c-2.4839-3.3676-8.1557-3.3916-12.6582-.0629-4.5088,3.3281-6.1391,8.7587-3.66,12.1191,2.5,3.3613,8.1621,3.3965,12.6625.0635" transform="translate(-213.998 -312.5186)"/></svg>