<svg id="Layer_1" data-name="Layer 1" xmlns="http://www.w3.org/2000/svg" viewBox="0 0 1048.82 255.12"><defs><style>.cls-1{fill:#322823;}.cls-2{fill:#fff;}.cls-3{fill:#f06423;}</style></defs><rect class="cls-1" y="51.02" width="204.09" height="204.09"/><path class="cls-2" d="M128.17,328.94a6.52,6.52,0,0,1-1.83,2,4.58,4.58,0,0,1-2.55.61,7.76,7.76,0,0,1-3.34-.81c-1.13-.55-2.41-1.13-3.81-1.75a38.38,38.38,0,0,0-4.84-1.74,22.13,22.13,0,0,0-6.3-.82c-3.64,0-6.45.74-8.44,2.24a7,7,0,0,0-3,5.89,5.74,5.74,0,0,0,1.72,4.23,14.85,14.85,0,0,0,4.51,3,55.76,55.76,0,0,0,6.36,2.36c2.39.72,4.85,1.52,7.36,2.39a67.83,67.83,0,0,1,7.35,3,25.61,25.61,0,0,1,6.37,4.26,19.37,19.37,0,0,1,4.52,6.18,20.38,20.38,0,0,1,1.71,8.75A28.34,28.34,0,0,1,131.71,380a24.62,24.62,0,0,1-6.55,8.89,31.1,31.1,0,0,1-10.71,5.87,50.6,50.6,0,0,1-23.32,1.33,46.38,46.38,0,0,1-8.06-2.2,47.7,47.7,0,0,1-7.15-3.29,31.1,31.1,0,0,1-5.76-4.07l5.19-8.36a6.55,6.55,0,0,1,2.25-2.28,6.44,6.44,0,0,1,3.44-.82,7.31,7.31,0,0,1,3.75,1c1.13.68,2.41,1.4,3.81,2.19a31.8,31.8,0,0,0,5,2.19,21.88,21.88,0,0,0,7.19,1,18.7,18.7,0,0,0,5.62-.73,10.51,10.51,0,0,0,3.82-2,7.91,7.91,0,0,0,2.84-6.13,6.17,6.17,0,0,0-1.75-4.53,15.71,15.71,0,0,0-4.55-3,44.36,44.36,0,0,0-6.46-2.35q-3.64-1.08-7.43-2.37a62.77,62.77,0,0,1-7.4-3.08,25.28,25.28,0,0,1-6.42-4.52A20.92,20.92,0,0,1,74.5,346a24.17,24.17,0,0,1-1.75-9.68,24.58,24.58,0,0,1,2-9.88,23.26,23.26,0,0,1,6.09-8.25A30.34,30.34,0,0,1,91,312.51a42.66,42.66,0,0,1,14-2.12,43.12,43.12,0,0,1,16.24,2.94,35.09,35.09,0,0,1,12,7.64Z" transform="translate(0 -212.6)"/><rect class="cls-3" x="70.16" y="200.55" width="63.78" height="15.59"/><rect class="cls-1" x="204.09" width="51.02" height="51.02"/><path class="cls-1" d="M274.39,387.73A132.48,132.48,0,0,0,310,368.42a140,140,0,0,0,20.47-19,221.6,221.6,0,0,0,65.29,39.23l7.5-10.05c-28.86-12.88-52-33-62.16-42.73a95.3,95.3,0,0,0,7.71-13.59,93.53,93.53,0,0,0,5.91-15.17,28.17,28.17,0,0,0,.85-4.29l-29.31-7.39L324,306.12a106.76,106.76,0,0,1-7.08,19.09,112.45,112.45,0,0,1-12.35,20.15,125.65,125.65,0,0,1-16.29,18.21,99.81,99.81,0,0,1-19.46,14.08l-3.87,2.1,6.88,8.89Z" transform="translate(0 -212.6)"/><path class="cls-1" d="M426.53,413.33h84.59V302.11H426.53ZM454.28,313.2h29.09v89H454.28Z" transform="translate(0 -212.6)"/><polygon class="cls-1" points="584.35 218.93 742.25 218.93 742.25 206.71 584.35 206.69 584.35 218.93"/><polygon class="cls-1" points="255.12 218.93 413.02 218.93 413.02 206.71 255.12 206.69 255.12 218.93"/><path class="cls-1" d="M866.32,395.36c-10.25-5.65-24.64-8.51-42.78-8.51s-32.65,2.88-42.84,8.52c-10.93,6-16.44,14.38-16.44,24.84S769.77,439,780.7,445c10.19,5.65,24.61,8.5,42.84,8.5s32.53-2.85,42.78-8.48c11-6,16.55-14.41,16.55-24.85S877.31,401.39,866.32,395.36Zm-19.16,40.36c-5.43,4.44-13.37,6.69-23.62,6.69s-18.29-2.25-23.65-6.69-7.75-9.42-7.75-15.51,2.53-11.17,7.75-15.5S813.21,398,823.54,398s18.19,2.31,23.62,6.76c5.26,4.33,7.82,9.42,7.82,15.5S852.42,431.36,847.16,435.72Z" transform="translate(0 -212.6)"/><path class="cls-1" d="M799.7,354.58a94.23,94.23,0,0,0,17.66-22.07,76.11,76.11,0,0,0,6.43-14.29v11.21h30.28v19.42H820v12h34.06v27.59H882v-92a6.06,6.06,0,0,0-1.33-4,6.49,6.49,0,0,0-4.2-2.09l-22.38-1.2v28H824.16a78,78,0,0,0,2.69-11.43c.24-2.07,1.35-7.95-1-7.95h-79V310H796.4a70.1,70.1,0,0,1-5.35,15,93.29,93.29,0,0,1-11.63,18.53,98.83,98.83,0,0,1-16.24,16,91.05,91.05,0,0,1-19.33,11.6l-4,1.78,5.75,9,2.51-.54a106.52,106.52,0,0,0,51.61-26.73Z" transform="translate(0 -212.6)"/><path class="cls-1" d="M951.61,360.55a169.42,169.42,0,0,0,4.49-24.35c.82-7.54,1.36-14.91,1.56-22.62,2.23,0,21.9,0,21.9,0V301.21l-73.86,0v12.35h23.37c-.17,8.46-.55,16.6-1.12,24.84a178.51,178.51,0,0,1-4,27.36,130.87,130.87,0,0,1-8.33,24.74,81.72,81.72,0,0,1-13.88,21l-2.65,2.93,8.18,6.75,2.29-1.45A84.85,84.85,0,0,0,934.5,397a109.23,109.23,0,0,0,8.44-13.9c6,10.84,18,26.53,31.45,38.14l9.15-6.67c-16.23-16.33-28.81-38.83-33.2-49C951.12,363.37,951,362.64,951.61,360.55Z" transform="translate(0 -212.6)"/><path class="cls-1" d="M559.92,352.85v-56.4a5.84,5.84,0,0,0-1.67-4.28c-1.07-1.07-2.67-1.89-3.88-1.63L532,289.21v162.5h27.95V365c2.34.08,23.05,0,23.05,0V352.85S562.26,352.84,559.92,352.85Z" transform="translate(0 -212.6)"/><path class="cls-1" d="M1008.86,294h0l-21.14-1.34v55.3c-2.64,0-23.6,0-23.6,0v12.37h23.6v86.4h26.83V299.92a6,6,0,0,0-1.63-4.32A5.72,5.72,0,0,0,1008.86,294Z" transform="translate(0 -212.6)"/><path class="cls-1" d="M1047.47,292.42a5.23,5.23,0,0,0-4.15-1.88h0l-21.67-1.36V451.73h27.2V296.45A6.09,6.09,0,0,0,1047.47,292.42Z" transform="translate(0 -212.6)"/><path class="cls-1" d="M611.37,388.61H721.88V376.49H633.54V348.75h87.6v-12h-87.6V310h88.34V297.61H604.72V382a6.2,6.2,0,0,0,1.95,5A6.92,6.92,0,0,0,611.37,388.61Z" transform="translate(0 -212.6)"/></svg>