<svg xmlns="http://www.w3.org/2000/svg" width="33" height="33" viewBox="0 0 33 33">
  <defs>
    <style>
      .cls-1 {
        fill: #fff;
        fill-rule: evenodd;
      }
    </style>
  </defs>
  <path class="cls-1" d="M1431.67,102.541c0.51-.017,1.02,0,1.53,0h0.21v-2.7c-0.27-.027-0.55-0.068-0.84-0.082-0.52-.023-1.05-0.05-1.57-0.038a3.818,3.818,0,0,0-2.22.7,3.383,3.383,0,0,0-1.33,2.253,7.458,7.458,0,0,0-.09,1.157c-0.02.606-.01,1.211,0,1.818v0.227h-2.54v3.012h2.52v7.575h3.09v-7.563h2.51c0.13-1,.26-1.994.39-3.028h-0.57c-0.71,0-2.35,0-2.35,0s0-1.493.02-2.141A1.1,1.1,0,0,1,1431.67,102.541Z" transform="translate(-1412.61 -91.594)"/>
</svg>
