<svg xmlns="http://www.w3.org/2000/svg" width="33" height="33" viewBox="0 0 33 33">
  <defs>
    <style>
      .cls-1 {
        fill: #fff;
        fill-rule: evenodd;
      }
    </style>
  </defs>
  <path class="cls-1" d="M1500.19,113.833a1.886,1.886,0,0,1-1.25-1.225c-0.54-1.5-.7-7.785.34-9.023a1.988,1.988,0,0,1,1.36-.728c2.8-.3,11.46-0.263,12.45.1a1.972,1.972,0,0,1,1.23,1.191c0.59,1.553.61,7.2-.08,8.7a1.916,1.916,0,0,1-.88.9C1512.32,114.3,1501.56,114.292,1500.19,113.833Zm4.45-2.944c1.68-.885,3.35-1.76,5.04-2.647-1.69-.894-3.36-1.774-5.04-2.663v5.31Z" transform="translate(-1490.155 -91.906)"/>
</svg>
