<svg xmlns="http://www.w3.org/2000/svg" width="33" height="33" viewBox="0 0 33 33">
  <defs>
    <style>
      .cls-1 {
        fill: #fff;
        fill-rule: evenodd;
      }
    </style>
  </defs>
  <path class="cls-1" d="M1464.88,115.311a9.743,9.743,0,0,0,9.83-9.785c0-.149-0.01-0.3-0.01-0.445a7.031,7.031,0,0,0,1.72-1.78,6.966,6.966,0,0,1-1.98.541,3.476,3.476,0,0,0,1.52-1.9,6.963,6.963,0,0,1-2.2.835,3.462,3.462,0,0,0-5.98,2.353,3.378,3.378,0,0,0,.09.784,9.835,9.835,0,0,1-7.12-3.593,3.384,3.384,0,0,0-.47,1.728,3.429,3.429,0,0,0,1.54,2.863,3.409,3.409,0,0,1-1.56-.43v0.044a3.443,3.443,0,0,0,2.77,3.371,3.485,3.485,0,0,1-.91.121,3.413,3.413,0,0,1-.65-0.062,3.45,3.45,0,0,0,3.22,2.389,6.993,6.993,0,0,1-5.11,1.424,9.8,9.8,0,0,0,5.3,1.545" transform="translate(-1451.5 -92)"/>
</svg>
