<svg xmlns="http://www.w3.org/2000/svg" width="33" height="33" viewBox="0 0 33 33">
  <defs>
    <style>
      .cls-1 {
        fill: #fff;
        fill-rule: evenodd;
      }
    </style>
  </defs>
  <path class="cls-1" fill-rule="evenodd"  fill="rgb(255, 255, 255)"
 d="M16.191,13.932 C15.705,15.822 14.502,16.945 12.631,17.253 C11.217,17.488 4.916,17.531 3.634,17.191 C1.781,16.705 0.676,15.480 0.368,13.571 C0.142,12.174 0.065,5.664 0.452,4.252 C0.956,2.414 2.149,1.329 3.969,1.026 C5.562,0.761 10.098,0.828 12.008,0.934 C13.129,0.995 14.153,1.356 14.989,2.171 C15.784,2.944 16.194,3.912 16.303,5.005 C16.433,6.312 16.563,12.482 16.191,13.932 ZM14.840,5.147 C14.685,3.688 13.806,2.722 12.390,2.500 C11.010,2.285 5.829,2.303 4.389,2.468 C2.969,2.630 2.027,3.526 1.813,4.965 C1.585,6.493 1.631,12.201 1.816,13.344 C2.009,14.539 2.674,15.357 3.837,15.689 C5.054,16.036 10.908,15.956 12.220,15.809 C13.647,15.650 14.589,14.751 14.807,13.300 C15.027,11.836 14.985,6.510 14.840,5.147 ZM12.637,5.716 C12.098,5.715 11.662,5.267 11.664,4.717 C11.665,4.167 12.103,3.721 12.642,3.723 C13.181,3.723 13.617,4.172 13.615,4.722 C13.614,5.273 13.176,5.718 12.637,5.716 ZM8.305,13.398 C6.003,13.396 4.138,11.490 4.139,9.139 C4.141,6.787 6.007,4.882 8.309,4.883 C10.611,4.884 12.476,6.791 12.474,9.143 C12.474,11.494 10.606,13.399 8.305,13.398 ZM8.329,6.384 C6.840,6.371 5.623,7.592 5.610,9.113 C5.596,10.633 6.792,11.877 8.280,11.891 C9.769,11.904 10.987,10.683 11.000,9.161 C11.013,7.643 9.817,6.398 8.329,6.384 Z" transform="translate(8.1, 7.5)"/>
</svg>