<svg xmlns="http://www.w3.org/2000/svg" width="33" height="33" viewBox="0 0 33 33">
  <defs>
    <style>
      .cls-1 {
        fill: #fff;
        fill-rule: evenodd;
      }
    </style>
  </defs>
  <path class="cls-1" d="M1582.97,100.311h4.57c0.34,0,.36.017,0.36,0.353q0,4.431.01,8.863a0.279,0.279,0,0,1-.35.324q-4.605-.011-9.21,0a0.27,0.27,0,0,1-.33-0.317q0.015-4.445.01-8.889c0-.318.02-0.334,0.35-0.334h4.59Zm2.06,6.531v-0.8c0-.87,0-1.74-0.01-2.61a0.324,0.324,0,0,0-.11-0.236c-0.4-.02-0.79-0.012-1.23-0.012v1.776c-0.03.008-.05,0.015-0.08,0.022a2.128,2.128,0,0,1-.17-0.2c-0.35-.476-0.7-0.958-1.06-1.428a0.45,0.45,0,0,0-.3-0.163c-0.32-.02-0.64,0-0.96-0.009a0.173,0.173,0,0,0-.21.2c0,1.086.01,2.171,0,3.257a0.184,0.184,0,0,0,.23.2c0.28-.006.55-0.009,0.83,0,0.19,0.008.27-.044,0.26-0.246-0.02-.405-0.01-0.809-0.01-1.215,0.01-.107.03-0.215,0.05-0.323a0.41,0.41,0,0,1,.22.164c0.37,0.485.74,0.973,1.11,1.455a0.35,0.35,0,0,0,.2.151C1584.19,106.848,1584.6,106.842,1585.03,106.842Zm-2.06,3.832h4.43a1.636,1.636,0,0,1,.21.005c0.15,0.02.19,0.1,0.09,0.209-0.63.7-1.25,1.411-1.89,2.108a0.449,0.449,0,0,1-.3.118c-1.69.007-3.38,0.008-5.08,0a0.535,0.535,0,0,1-.34-0.151c-0.62-.682-1.23-1.375-1.85-2.063-0.12-.132-0.08-0.2.08-0.221a1.307,1.307,0,0,1,.19,0h4.46Zm0,3.262c0.54,0,1.07,0,1.61,0a1.263,1.263,0,0,1,.27.065,0.94,0.94,0,0,1-.12.234c-0.51.586-1.03,1.167-1.54,1.749-0.22.24-.24,0.237-0.44,0-0.53-.6-1.06-1.191-1.58-1.79-0.04-.054-0.06-0.128-0.1-0.192a0.9,0.9,0,0,1,.22-0.071C1581.85,113.932,1582.41,113.934,1582.97,113.936Z" transform="translate(-1566.47 -91.75)"/>
</svg>
